<svg id="Apartment" height="512" viewBox="0 0 64 64" width="512" xmlns="http://www.w3.org/2000/svg"><path d="m20 8h24v52h-24z" fill="#c6c5ca"/><path d="m16 4h32v4h-32z" fill="#ed1c24"/><path d="m24 32h6v6h-6z" fill="#c2dff6"/><path d="m34 32h6v6h-6z" fill="#83d8f4"/><path d="m24 22h6v6h-6z" fill="#83d8f4"/><path d="m34 22h6v6h-6z" fill="#c2dff6"/><g fill="#83d8f4"><path d="m24 42h6v6h-6z"/><path d="m34 42h6v6h-6z"/><path d="m24 12h6v6h-6z"/><path d="m34 12h6v6h-6z"/></g><path d="m29 52h6v8h-6z" fill="#e0e0e2"/><path d="m14.656 47.611a3.96 3.96 0 0 0 -1.273-4.811 3 3 0 1 0 -4.766 0 3.96 3.96 0 0 0 -1.273 4.807 5 5 0 1 0 7.312 0z" fill="#91cc04"/><path d="m50.344 44.611a3.96 3.96 0 0 1 1.273-4.811 3 3 0 1 1 4.766 0 3.96 3.96 0 0 1 1.273 4.807 5 5 0 1 1 -7.312 0z" fill="#91cc04"/><path d="m59 16.5a2.5 2.5 0 0 0 -2.5-2.5 2.544 2.544 0 0 0 -.505.051c0-.017.005-.033.005-.051a2.993 2.993 0 0 0 -5.822-.982c-.06 0-.117-.018-.178-.018a3 3 0 0 0 0 6h7v-.05a2.5 2.5 0 0 0 2-2.45z" fill="#e0e0e2"/><path d="m17 27.5a2.5 2.5 0 0 0 -2.5-2.5 2.544 2.544 0 0 0 -.505.051c0-.017.005-.033.005-.051a2.993 2.993 0 0 0 -5.822-.982c-.06-.004-.117-.018-.178-.018a3 3 0 0 0 0 6h7v-.05a2.5 2.5 0 0 0 2-2.45z" fill="#e0e0e2"/><path d="m58 59h-3v-5.09a5.976 5.976 0 0 0 3.793-9.5 4.953 4.953 0 0 0 -1.136-4.81 3.909 3.909 0 0 0 .343-1.6 4 4 0 0 0 -8 0 3.909 3.909 0 0 0 .343 1.6 4.955 4.955 0 0 0 -1.136 4.809 5.975 5.975 0 0 0 3.793 9.501v1.222l-1.445-.964a1 1 0 1 0 -1.11 1.664l2.555 1.703v1.465h-8v-50h3a1 1 0 0 0 1-1v-4a1 1 0 0 0 -1-1h-32a1 1 0 0 0 -1 1v4a1 1 0 0 0 1 1h3v50h-7v-2.09a5.976 5.976 0 0 0 3.793-9.5 4.953 4.953 0 0 0 -1.136-4.808 3.909 3.909 0 0 0 .343-1.602 4 4 0 0 0 -8 0 3.909 3.909 0 0 0 .343 1.6 4.953 4.953 0 0 0 -1.136 4.808 5.976 5.976 0 0 0 3.793 9.502v2.09h-8a1 1 0 0 0 0 2h56a1 1 0 0 0 0-2zm-8-11a3.978 3.978 0 0 1 1.077-2.709 1 1 0 0 0 .181-1.084 2.963 2.963 0 0 1 .957-3.6 1 1 0 0 0 .2-1.4 1.975 1.975 0 0 1 -.415-1.207 2 2 0 0 1 4 0 1.975 1.975 0 0 1 -.414 1.2 1 1 0 0 0 .2 1.4 2.96 2.96 0 0 1 .956 3.6 1 1 0 0 0 .182 1.084 3.969 3.969 0 0 1 -1.924 6.574v-2.858a1 1 0 0 0 -2 0v2.858a4 4 0 0 1 -3-3.858zm-43 3a3.978 3.978 0 0 1 1.077-2.709 1 1 0 0 0 .182-1.084 2.96 2.96 0 0 1 .956-3.6 1 1 0 0 0 .2-1.4 1.975 1.975 0 0 1 -.415-1.207 2 2 0 0 1 4 0 1.975 1.975 0 0 1 -.414 1.2 1 1 0 0 0 .2 1.4 2.96 2.96 0 0 1 .956 3.6 1 1 0 0 0 .182 1.084 3.969 3.969 0 0 1 -1.924 6.574v-2.858a1 1 0 0 0 -2 0v2.858a4 4 0 0 1 -3-3.858zm10-46h30v2h-30zm13 54v-6h4v6zm6 0v-7a1 1 0 0 0 -1-1h-6a1 1 0 0 0 -1 1v7h-7v-50h22v50z"/><path d="m62 59h-1a1 1 0 0 0 0 2h1a1 1 0 0 0 0-2z"/><path d="m30 31h-6a1 1 0 0 0 -1 1v6a1 1 0 0 0 1 1h6a1 1 0 0 0 1-1v-6a1 1 0 0 0 -1-1zm-1 6h-4v-4h4z"/><path d="m40 31h-6a1 1 0 0 0 -1 1v6a1 1 0 0 0 1 1h6a1 1 0 0 0 1-1v-6a1 1 0 0 0 -1-1zm-1 6h-4v-4h4z"/><path d="m30 21h-6a1 1 0 0 0 -1 1v6a1 1 0 0 0 1 1h6a1 1 0 0 0 1-1v-6a1 1 0 0 0 -1-1zm-1 6h-4v-4h4z"/><path d="m40 21h-6a1 1 0 0 0 -1 1v6a1 1 0 0 0 1 1h6a1 1 0 0 0 1-1v-6a1 1 0 0 0 -1-1zm-1 6h-4v-4h4z"/><path d="m30 41h-6a1 1 0 0 0 -1 1v6a1 1 0 0 0 1 1h6a1 1 0 0 0 1-1v-6a1 1 0 0 0 -1-1zm-1 6h-4v-4h4z"/><path d="m40 41h-6a1 1 0 0 0 -1 1v6a1 1 0 0 0 1 1h6a1 1 0 0 0 1-1v-6a1 1 0 0 0 -1-1zm-1 6h-4v-4h4z"/><path d="m30 11h-6a1 1 0 0 0 -1 1v6a1 1 0 0 0 1 1h6a1 1 0 0 0 1-1v-6a1 1 0 0 0 -1-1zm-1 6h-4v-4h4z"/><path d="m40 11h-6a1 1 0 0 0 -1 1v6a1 1 0 0 0 1 1h6a1 1 0 0 0 1-1v-6a1 1 0 0 0 -1-1zm-1 6h-4v-4h4z"/><path d="m54 47a1 1 0 0 0 1-1v-1a1 1 0 0 0 -2 0v1a1 1 0 0 0 1 1z"/><path d="m46 16a4 4 0 0 0 4 4h7a.929.929 0 0 0 .5-.145 3.5 3.5 0 0 0 -.619-6.834 3.99 3.99 0 0 0 -7.344-.994 4.006 4.006 0 0 0 -3.537 3.973zm3.965-2 .148.016a1 1 0 0 0 1.01-.669 1.992 1.992 0 0 1 3.877.608c0 .024 0 .049-.005.068a1 1 0 0 0 1.2 1.008 1.528 1.528 0 0 1 1.805 1.469 1.5 1.5 0 0 1 -1.2 1.47 1.088 1.088 0 0 0 -.112.03h-6.688a2 2 0 0 1 -.035-4z"/><path d="m8 31h7a.929.929 0 0 0 .5-.145 3.5 3.5 0 0 0 -.619-6.834 3.99 3.99 0 0 0 -7.344-.994 4 4 0 0 0 .463 7.973zm-.035-6 .148.016a1 1 0 0 0 1.01-.669 1.992 1.992 0 0 1 3.877.608c0 .024 0 .049-.005.068a1 1 0 0 0 1.2 1.008 1.528 1.528 0 0 1 1.805 1.469 1.5 1.5 0 0 1 -1.2 1.47 1.088 1.088 0 0 0 -.112.03h-6.688a2 2 0 0 1 -.035-4z"/></svg>