<?xml version="1.0" encoding="iso-8859-1"?>
<!-- Generator: Adobe Illustrator 19.0.0, SVG Export Plug-In . SVG Version: 6.00 Build 0)  -->
<svg version="1.1" id="Capa_1" xmlns="http://www.w3.org/2000/svg" xmlns:xlink="http://www.w3.org/1999/xlink" x="0px" y="0px"
	 viewBox="0 0 508 508" style="enable-background:new 0 0 508 508;" xml:space="preserve">
<g>
	<g>
		<path d="M483.4,356.4L483.4,356.4V94.2c0-13.6-11-24.6-24.6-24.6H49.2c-13.6,0-24.6,11-24.6,24.6v262.2H0v44.4l37.6,37.6h432.8
			l37.6-37.6v-44.4H483.4z M41,94.2c0-4.5,3.7-8.2,8.2-8.2h409.7c4.5,0,8.2,3.7,8.2,8.2v262.2H303.2v16.4h-98.3v-16.4H41V94.2z
			 M491.7,394h-0.1l-28,28H44.4l-28-28v-21.2h172.1v16.4h131.1v-16.4h172.1V394z"/>
	</g>
</g>
<g>
	<g>
		<rect x="65.5" y="389.2" width="16.4" height="16.4"/>
	</g>
</g>
<g>
	<g>
		<rect x="98.3" y="389.2" width="16.4" height="16.4"/>
	</g>
</g>
<g>
	<g>
		<rect x="131.1" y="389.2" width="16.4" height="16.4"/>
	</g>
</g>
<g>
	<g>
		<path d="M65.5,331.8h376.9V110.6H65.5V331.8z M172.5,315.4h-56.1c3.9-22.6,23.7-40,47.5-40c7.2,0,14.3,1.7,20.8,4.8
			C178.2,290.6,173.8,302.6,172.5,315.4z M147,242.2c0-9.3,7.6-16.9,16.9-16.9s16.9,7.6,16.9,16.9s-7.6,16.9-16.9,16.9
			S147,251.5,147,242.2z M189,315.5c4.1-32.3,31.6-57.4,65-57.4c33.4,0,60.9,25.1,65,57.4H189z M229.4,217.1
			c0-13.6,11-24.6,24.6-24.6c13.6,0,24.6,11,24.6,24.6c0,13.6-11,24.6-24.6,24.6C240.4,241.7,229.4,230.7,229.4,217.1z M335.5,315.4
			c-1.3-12.9-5.6-24.8-12.2-35.2c6.5-3.1,13.6-4.8,20.8-4.8c23.8,0,43.5,17.3,47.5,40H335.5z M327.3,242.2c0-9.3,7.6-16.9,16.9-16.9
			s16.9,7.6,16.9,16.9s-7.6,16.9-16.9,16.9S327.3,251.5,327.3,242.2z M81.9,127H426v188.5h-17.8c-3-23.2-18.3-42.7-39.1-51.4
			c5.2-5.9,8.4-13.5,8.4-21.9c0-18.3-14.9-33.3-33.3-33.3c-18.3,0-33.3,14.9-33.3,33.3c0,8.4,3.2,16,8.4,21.9
			c-2.1,0.9-4.1,1.9-6.1,3c-8.6-9-19.2-16-31.1-20.3c7.9-7.5,12.9-18,12.9-29.7c0-22.6-18.4-41-41-41c-22.6,0-41,18.4-41,41
			c0,11.7,5,22.2,12.9,29.7c-11.9,4.4-22.5,11.4-31.1,20.3c-2-1.1-4-2.1-6.1-3c5.2-5.9,8.4-13.5,8.4-21.9
			c0-18.3-14.9-33.3-33.3-33.3s-33.3,14.9-33.3,33.3c0,8.4,3.2,16,8.4,21.9c-20.9,8.7-36.2,28.2-39.1,51.4H81.9V127z"/>
	</g>
</g>
<g>
	<g>
		<rect x="352.3" y="389.2" width="106.5" height="16.4"/>
	</g>
</g>
<g>
</g>
<g>
</g>
<g>
</g>
<g>
</g>
<g>
</g>
<g>
</g>
<g>
</g>
<g>
</g>
<g>
</g>
<g>
</g>
<g>
</g>
<g>
</g>
<g>
</g>
<g>
</g>
<g>
</g>
</svg>
