<?xml version="1.0" encoding="iso-8859-1"?>
<!-- Generator: Adobe Illustrator 19.0.0, SVG Export Plug-In . SVG Version: 6.00 Build 0)  -->
<svg version="1.1" id="Capa_1" xmlns="http://www.w3.org/2000/svg" xmlns:xlink="http://www.w3.org/1999/xlink" x="0px" y="0px"
	 viewBox="0 0 512 512" style="enable-background:new 0 0 512 512;" xml:space="preserve">
<g>
	<g>
		<path d="M320.764,237.185c0,0,0,0,0-0.01c-0.34-7.27-0.849-15.39-1.608-24.098h-0.01c-4.115-47.257-15.509-112.041-46.319-155.294
			c-3.955-5.573-8.239-10.776-12.873-15.549h-0.01c-1.278-1.328-2.597-2.626-3.945-3.875c-1.348,1.248-2.667,2.547-3.945,3.875
			c-4.654,4.774-8.938,9.987-12.903,15.549c-30.859,43.283-42.244,108.076-46.338,155.324c-0.749,8.708-1.258,16.818-1.598,24.088
			c-0.429,9.198-0.579,17.057-0.609,23.069h4.344l4.274-7.76c8.938-16.248,24.228-27.663,41.794-31.848v235.826
			c0,13.905-11.313,25.218-25.218,25.218s-25.218-11.313-25.218-25.218h-29.96c0,30.425,24.753,55.178,55.178,55.178
			c30.425,0,55.178-24.753,55.178-55.178V220.657c17.567,4.184,32.856,15.599,41.794,31.848l4.274,7.76h4.344
			C321.353,254.252,321.203,246.393,320.764,237.185z"/>
	</g>
</g>
<g>
	<g>
		<path d="M509.224,242.917c-9.517-59.571-40.067-114.148-86.026-153.706c-38.169-32.856-85.077-53.579-134.641-59.92
			c4.554,5.403,8.768,11.135,12.683,17.137c3.665,5.613,7.061,11.465,10.216,17.497c25.476,48.735,34.874,109.245,38.219,152.937
			c0.599,7.89,0.999,15.24,1.268,21.861c0.34,8.469,0.459,15.769,0.469,21.541h4.354l4.264-7.76
			c11.415-20.732,33.166-33.605,56.785-33.605c23.609,0,45.37,12.873,56.775,33.605l4.274,7.76H512L509.224,242.917z"/>
	</g>
</g>
<g>
	<g>
		<path d="M88.802,89.211c-45.959,39.557-76.508,94.135-86.026,153.706L0,260.264h34.135l4.274-7.76
			c11.405-20.732,33.166-33.605,56.775-33.605c23.619,0,45.37,12.873,56.785,33.605l4.264,7.76h4.354
			c0.01-5.772,0.13-13.073,0.469-21.541c0.27-6.621,0.669-13.971,1.268-21.861c3.346-43.692,12.743-104.202,38.219-152.937
			c3.156-6.032,6.551-11.884,10.216-17.497c3.915-6.002,8.129-11.734,12.683-17.137C173.879,35.633,126.971,56.355,88.802,89.211z"
			/>
	</g>
</g>
<g>
	<g>
		<path d="M241.02,0.34v11.265v16.049c2.866-0.17,5.742-0.29,8.619-0.359c2.117-0.05,4.234-0.08,6.362-0.08
			c2.127,0,4.244,0.03,6.362,0.08c2.876,0.07,5.752,0.19,8.619,0.359V11.605V0.34H241.02z"/>
	</g>
</g>
<g>
</g>
<g>
</g>
<g>
</g>
<g>
</g>
<g>
</g>
<g>
</g>
<g>
</g>
<g>
</g>
<g>
</g>
<g>
</g>
<g>
</g>
<g>
</g>
<g>
</g>
<g>
</g>
<g>
</g>
</svg>
